HIERARCHY
ROOT Hips
{
	OFFSET 0.00000 0.00000 0.00000
	CHANNELS 6 Xposition Yposition Zposition Zrotation Yrotation Xrotation 
	JOINT RightUpLegDummy
	{
		OFFSET 0 0 0
		CHANNELS 3 Zrotation Yrotation Xrotation
		JOINT RightUpLeg
		{
			OFFSET -3.52197 -3.41223 0.04002
			CHANNELS 3 Zrotation Yrotation Xrotation
			JOINT RightLeg
			{
				OFFSET 0.00006 -17.42390 1.60435
				CHANNELS 3 Zrotation Yrotation Xrotation
				JOINT RightFoot
				{
					OFFSET 0.06154 -16.50078 -1.63900
					CHANNELS 3 Zrotation Yrotation Xrotation
					JOINT RightToes
					{
						OFFSET 0.00298 -1.73825 3.34613
						CHANNELS 3 Zrotation Yrotation Xrotation
						End Site
						{
							OFFSET 0.00480 -0.05416 3.85043
						}
					}
				}
			}
		}
	}
	JOINT SpineDummy
	{
		OFFSET 0 0 0
		CHANNELS 3 Zrotation Yrotation Xrotation
		JOINT Spine
		{
			OFFSET 0.00000 4.68130 0.00000
			CHANNELS 3 Zrotation Yrotation Xrotation
			JOINT Spine1
			{
				OFFSET -0.00000 10.10138 0.05002
				CHANNELS 3 Zrotation Yrotation Xrotation
				JOINT HEadDummy
				{
					OFFSET 0 0 0
					CHANNELS 3 Zrotation Yrotation Xrotation
					JOINT Head
					{
						OFFSET -0.00000 3.43865 0.00438
						CHANNELS 3 Zrotation Yrotation Xrotation
						End Site
						{
							OFFSET -0.11417 5.02924 0.98962
						}
					}
				}
				JOINT LeftShoulder1Dummy
				{
					OFFSET 0 0 0
					CHANNELS 3 Zrotation Yrotation Xrotation
					JOINT LeftShoulder1
					{
						OFFSET 3.53937 -0.14262 -0.08662
						CHANNELS 3 Zrotation Yrotation Xrotation
						JOINT LeftArm
						{
							OFFSET 4.04833 -0.00133 0.12681
							CHANNELS 3 Zrotation Yrotation Xrotation
							JOINT LeftForeArm
							{
								OFFSET 10.33880 -0.01036 -0.55515
								CHANNELS 3 Zrotation Yrotation Xrotation
								JOINT LeftHand
								{
									OFFSET 8.69677 0.07543 0.40060
									CHANNELS 3 Zrotation Yrotation Xrotation
									End Site
									{
										OFFSET 5.28377 -0.21905 0.59205
									}
								}
							}
						}
					}
				}
				JOINT RightShoulderDummy
				{
					OFFSET 0 0 0
					CHANNELS 3 Zrotation Yrotation Xrotation
					JOINT RightShoulder
					{
						OFFSET -3.53937 -0.14262 -0.08660
						CHANNELS 3 Zrotation Yrotation Xrotation
						JOINT RightArm
						{
							OFFSET -4.04833 -0.00133 0.12683
							CHANNELS 3 Zrotation Yrotation Xrotation
							JOINT RightForeArm
							{
								OFFSET -10.37987 -0.01039 -0.55511
								CHANNELS 3 Zrotation Yrotation Xrotation
								JOINT RightHand
								{
									OFFSET -8.67398 0.07538 0.40058
									CHANNELS 3 Zrotation Yrotation Xrotation
									End Site
									{
										OFFSET -5.24810 -0.21916 0.59204
									}
								}
							}
						}
					}
				}
			}
		}
	}
	JOINT LeftUpLegDummy
	{
		OFFSET 0 0 0
		CHANNELS 3 Zrotation Yrotation Xrotation
		JOINT LeftUpLeg
		{
			OFFSET 3.52197 -3.41223 0.04002
			CHANNELS 3 Zrotation Yrotation Xrotation
			JOINT LeftLeg
			{
				OFFSET -0.00012 -17.42399 1.60337
				CHANNELS 3 Zrotation Yrotation Xrotation
				JOINT LeftFoot
				{
					OFFSET -0.09972 -16.50070 -1.63802
					CHANNELS 3 Zrotation Yrotation Xrotation
					JOINT LeftToes
					{
						OFFSET -0.01575 -1.73823 3.34611
						CHANNELS 3 Zrotation Yrotation Xrotation
						End Site
						{
							OFFSET 0.03150 -0.01868 3.85031
						}
					}
				}
			}
		}
	}
}
MOTION
Frames: 11
Frame Time: 0.033333
-6.3756 38.7888 -31.8135 130.6220 83.6724 129.9780 0.0000 0.0000 0.0000 -7.9887 -1.9615 -25.6576 -10.1145 -12.2306 33.9038 7.9477 -1.0147 3.4512 -0.0000 -0.0000 0.0000 0.0000 0.0000 0.0000 -12.1477 -4.1720 -8.5486 2.8566 -5.0494 19.0574 0.0000 0.0000 0.0000 -1.7573 2.5406 -7.8640 0.0000 0.0000 0.0000 -18.9732 -3.7920 1.8603 -53.6029 -32.9391 -10.5276 -12.9174 -5.3885 29.0330 16.5967 -3.4208 -1.2361 0.0000 0.0000 0.0000 19.4263 1.1728 1.2129 58.7908 3.3521 4.4023 10.5741 12.7768 22.0536 -5.5377 1.6404 -0.3208 0.0000 0.0000 0.0000 -8.7188 -0.8631 5.2395 0.1317 5.8007 10.9209 4.2738 0.1836 -13.9974 -0.0000 0.0000 -0.0000
-4.8850 38.7529 -31.8084 138.2300 83.5521 138.2440 0.0000 0.0000 0.0000 -7.3940 -3.2541 -25.0623 -6.6225 -13.8229 19.0286 6.5566 -0.9820 5.9408 -0.0000 -0.0000 0.0000 0.0000 0.0000 0.0000 -11.7515 -4.7591 -9.4788 3.8840 -5.7777 19.3035 0.0000 0.0000 0.0000 -1.9679 2.8026 -8.3379 0.0000 0.0000 0.0000 -18.5625 -3.6773 1.8037 -54.1425 -34.6984 -6.2313 -11.9470 -9.1001 22.7325 17.4371 -3.4673 -1.3075 0.0000 0.0000 0.0000 19.2263 1.2580 1.2262 58.6504 1.7987 -0.7813 11.4835 10.6091 27.4115 -4.9628 1.4957 -0.2809 0.0000 0.0000 0.0000 -7.9628 -0.6513 7.6956 0.0439 5.1590 9.4480 4.1033 0.2045 -14.5993 -0.0000 0.0000 -0.0000
-3.4133 38.7162 -31.7704 144.2800 83.2971 144.7940 0.0000 0.0000 0.0000 -6.3904 -5.4076 -23.6894 -2.5243 -12.5010 4.3762 7.6358 -1.0740 5.1928 -0.0000 -0.0000 0.0000 0.0000 0.0000 0.0000 -11.8283 -5.0979 -9.6276 5.5401 -6.6176 19.0454 0.0000 0.0000 0.0000 -2.1906 3.1679 -8.7639 0.0000 0.0000 0.0000 -18.5201 -3.6884 1.8037 -54.6570 -35.2951 1.6246 -9.7991 -13.8155 12.5805 17.5534 -3.4934 -1.3205 0.0000 0.0000 0.0000 19.2372 1.2878 1.2343 58.3009 0.2853 -5.6320 12.0105 8.4801 31.9463 -4.7047 1.2679 -0.2582 0.0000 0.0000 0.0000 -7.0582 -0.3761 10.3394 -0.3034 4.1940 7.8038 3.1266 0.1902 -15.0329 -0.0000 0.0000 -0.0000
-1.8655 38.5371 -31.6773 145.7180 82.9829 146.5450 0.0000 0.0000 0.0000 -6.4448 -6.3128 -22.8636 0.2864 -10.9135 -4.2842 12.5628 -1.2830 0.3845 -0.0000 -0.0000 0.0000 0.0000 0.0000 0.0000 -12.3275 -5.2547 -9.3565 6.8913 -7.2546 18.5888 0.0000 0.0000 0.0000 -2.2175 3.6658 -9.4293 0.0000 0.0000 0.0000 -18.8262 -3.6328 1.8100 -54.8811 -35.1444 10.8117 -6.4153 -18.2384 1.0422 17.0090 -3.5074 -1.2800 0.0000 0.0000 0.0000 19.3007 1.2402 1.2249 58.0860 -0.9500 -10.4654 12.0329 6.3852 35.9931 -4.6954 1.1128 -0.2527 0.0000 0.0000 0.0000 -6.4476 -0.0653 12.5802 -0.4847 3.2909 7.6504 1.5339 0.1516 -15.6264 -0.0000 0.0000 -0.0000
-0.1993 38.3149 -31.5677 147.5110 83.1997 148.4490 0.0000 0.0000 0.0000 -5.9260 -6.2395 -23.1221 0.8235 -10.5513 -4.8129 15.4398 -1.1546 -3.0694 -0.0000 -0.0000 0.0000 0.0000 0.0000 0.0000 -11.6907 -5.3054 -9.5261 7.2428 -7.5516 18.7524 0.0000 0.0000 0.0000 -2.2140 3.8767 -10.2861 0.0000 0.0000 0.0000 -19.2650 -3.5252 1.8114 -54.7312 -34.4199 17.4245 -3.1978 -21.3984 -7.2937 16.4598 -3.4975 -1.2357 0.0000 0.0000 0.0000 19.2967 1.1854 1.2105 58.1048 -1.6442 -14.5157 11.5019 4.5049 38.8788 -4.6000 0.9698 -0.2429 0.0000 0.0000 0.0000 -5.6814 0.2218 14.7172 -0.1415 2.6978 8.5078 -0.0436 0.0922 -15.7372 -0.0000 0.0000 -0.0000
1.6049 38.1163 -31.4601 155.8120 83.6482 156.6530 0.0000 0.0000 0.0000 -4.5002 -5.2439 -23.3065 0.0038 -12.7533 -0.9630 11.6120 -1.1060 -0.0357 -0.0000 -0.0000 0.0000 0.0000 0.0000 0.0000 -9.7192 -5.5063 -10.3889 6.9960 -7.8968 19.5705 0.0000 0.0000 0.0000 -2.2608 4.1677 -10.9743 0.0000 0.0000 0.0000 -19.8750 -3.6030 1.8720 -54.3292 -32.8909 19.6974 -1.5032 -23.2000 -10.1577 16.2489 -3.5238 -1.2228 0.0000 0.0000 0.0000 19.4373 1.1449 1.2062 57.8523 -1.7995 -16.8468 10.7237 2.9126 39.9718 -4.3899 0.7427 -0.2247 0.0000 0.0000 0.0000 -4.3502 0.3357 16.7985 0.7951 2.1855 10.2564 -2.3654 0.0040 -15.5291 -0.0000 0.0000 -0.0000
3.4528 37.9894 -31.3533 170.5450 83.5482 171.2160 0.0000 0.0000 0.0000 -2.8454 -4.3192 -22.6885 -0.8234 -15.0337 2.5832 5.3621 -0.8573 7.0752 -0.0000 -0.0000 0.0000 0.0000 0.0000 0.0000 -7.3467 -5.9491 -11.1714 6.9501 -8.5019 20.0248 0.0000 0.0000 0.0000 -2.8175 4.7150 -10.7751 0.0000 0.0000 0.0000 -20.5925 -3.8624 1.9894 -54.4234 -30.5836 18.8620 -1.4674 -23.2676 -9.0307 16.3837 -3.6399 -1.2491 0.0000 0.0000 0.0000 19.8604 1.0984 1.2123 56.9755 -1.5689 -18.1644 10.0578 1.3750 40.4564 -4.2668 0.5139 -0.2117 0.0000 0.0000 0.0000 -2.6780 -0.6084 17.9001 1.9623 3.0556 13.7204 -6.3320 -0.0524 -14.0228 -0.0000 0.0000 -0.0000
5.2047 38.0027 -31.2606 -173.5410 83.1090 -173.0590 0.0000 0.0000 0.0000 -1.2389 -3.9048 -21.5136 -0.8967 -15.7048 5.1412 3.4100 -0.6412 10.9459 -0.0000 -0.0000 0.0000 0.0000 0.0000 0.0000 -4.5602 -6.1491 -10.9986 7.0448 -8.8582 19.4013 0.0000 0.0000 0.0000 -3.6084 5.1546 -9.7928 0.0000 0.0000 0.0000 -20.8990 -3.9975 2.0473 -55.7508 -28.2262 14.3142 -3.5188 -20.9018 -3.9544 16.8689 -3.7682 -1.3053 0.0000 0.0000 0.0000 20.1735 1.1047 1.2274 56.1306 -0.9244 -19.2648 9.4264 0.0451 41.1834 -4.1759 0.3853 -0.2035 0.0000 0.0000 0.0000 -0.7390 -2.1378 16.6478 3.3660 6.1570 20.4776 -9.9753 0.3096 -8.4213 -0.0000 0.0000 -0.0000
6.7952 38.0875 -31.1756 -157.9790 82.6181 -157.8550 0.0000 0.0000 0.0000 0.5386 -3.6529 -20.0495 -0.7594 -15.7247 7.8762 4.9853 -0.8854 9.7101 -0.0000 -0.0000 0.0000 0.0000 0.0000 0.0000 -1.0803 -5.8232 -9.9052 6.7912 -8.5120 18.3613 0.0000 0.0000 0.0000 -3.8035 4.9940 -8.9995 0.0000 0.0000 0.0000 -20.5325 -3.9151 1.9995 -57.7255 -26.5918 2.5049 -8.0677 -15.8452 8.1287 17.3297 -3.7467 -1.3391 0.0000 0.0000 0.0000 19.9594 1.2109 1.2462 56.1505 0.3042 -20.0549 8.7932 -0.4797 41.4601 -3.9012 0.3128 -0.1881 0.0000 0.0000 0.0000 2.0322 -0.9536 12.6291 5.7450 7.3016 30.8618 -10.1037 1.1664 2.3341 -0.0000 0.0000 -0.0000
8.2135 38.1132 -31.0664 -146.0270 81.6288 -146.5680 0.0000 0.0000 0.0000 2.4810 -3.3715 -18.3439 -0.9927 -15.7849 10.7099 5.9147 -0.9205 6.7369 -0.0000 -0.0000 0.0000 0.0000 0.0000 0.0000 2.2789 -5.2760 -8.6039 6.5294 -7.7901 18.1604 0.0000 0.0000 0.0000 -3.0958 3.9941 -8.7991 0.0000 0.0000 0.0000 -20.1055 -3.8961 1.9648 -59.1757 -25.6348 -10.0200 -11.2747 -9.5071 20.7965 17.0618 -3.5507 -1.2905 0.0000 0.0000 0.0000 19.5614 1.2840 1.2478 56.6717 2.1244 -19.9322 8.6183 0.1107 40.4193 -3.6237 0.2945 -0.1740 0.0000 0.0000 0.0000 4.4424 -0.5761 7.1561 8.5893 7.4192 42.3856 -7.6289 1.6161 13.7374 -0.0000 0.0000 -0.0000
9.5647 38.1572 -30.9170 -142.2320 80.5711 -143.6560 0.0000 0.0000 0.0000 3.9769 -3.2408 -16.2663 -1.6218 -15.8250 12.9127 4.9131 -0.6583 4.2415 -0.0000 -0.0000 0.0000 0.0000 0.0000 0.0000 4.1784 -4.6949 -7.7481 6.6494 -7.0112 18.8328 0.0000 0.0000 0.0000 -2.0417 2.3812 -8.4637 0.0000 0.0000 0.0000 -20.2496 -4.1193 2.0344 -59.5620 -24.7639 -15.6793 -11.9474 -4.6285 27.8006 16.0723 -3.3088 -1.1809 0.0000 0.0000 0.0000 19.6873 1.1836 1.2270 56.6310 4.3743 -18.3995 9.2967 1.4212 38.4723 -3.9083 0.4995 -0.1934 0.0000 0.0000 0.0000 5.5497 -1.3690 1.7159 11.1869 6.8182 52.1927 -5.5516 1.4069 19.1940 -0.0000 0.0000 -0.0000
